<svg width="200" height="150" viewBox="0 0 200 150" fill="none" xmlns="http://www.w3.org/2000/svg">
<ellipse cx="100" cy="105.5" rx="62" ry="11.5" fill="#F4F4F4"/>
<path d="M39.9983 73.5C39.9983 68.8056 43.8039 65 48.4983 65H110.998V82H48.4983C43.8039 82 39.9983 78.1944 39.9983 73.5Z" fill="#70A076"/>
<rect x="38.9983" y="64" width="125" height="19" rx="9.5" stroke="#484848" stroke-width="2"/>
<path d="M75.0463 39.928V38.216C74.4596 38.2053 73.889 38.1573 73.3343 38.072C72.7796 37.976 72.3316 37.848 71.9903 37.688V36.328C72.353 36.4987 72.817 36.648 73.3823 36.776C73.9476 36.904 74.5023 36.9733 75.0463 36.984V33.752C73.9903 33.464 73.217 33.1013 72.7263 32.664C72.2356 32.2267 71.9903 31.6293 71.9903 30.872C71.9903 30.0827 72.2623 29.464 72.8063 29.016C73.361 28.568 74.1076 28.3173 75.0463 28.264V26.856H76.0703V28.248C76.6356 28.2587 77.1476 28.3227 77.6063 28.44C78.0756 28.5467 78.5023 28.68 78.8863 28.84L78.4543 30.024C78.113 29.8853 77.7343 29.768 77.3183 29.672C76.913 29.5653 76.497 29.496 76.0703 29.464V32.68C76.7743 32.8827 77.361 33.1013 77.8303 33.336C78.2996 33.56 78.6516 33.8427 78.8863 34.184C79.1316 34.5147 79.2543 34.9467 79.2543 35.48C79.2543 36.2267 78.977 36.8347 78.4223 37.304C77.8676 37.7627 77.0836 38.0453 76.0703 38.152V39.928H75.0463ZM75.0463 32.328V29.496C74.4703 29.5387 74.0436 29.672 73.7663 29.896C73.4996 30.12 73.3663 30.408 73.3663 30.76C73.3663 31.1867 73.4836 31.5173 73.7183 31.752C73.9636 31.976 74.4063 32.168 75.0463 32.328ZM76.0703 36.904C76.6996 36.84 77.1583 36.696 77.4463 36.472C77.7343 36.2373 77.8783 35.9387 77.8783 35.576C77.8783 35.1707 77.7503 34.8667 77.4943 34.664C77.2383 34.4507 76.7636 34.2587 76.0703 34.088V36.904Z" fill="#484848"/>
<circle cx="75.4983" cy="33.5" r="8.5" stroke="#484848" stroke-width="2"/>
<path d="M55.0463 55.928V54.216C54.4596 54.2053 53.889 54.1573 53.3343 54.072C52.7796 53.976 52.3316 53.848 51.9903 53.688V52.328C52.353 52.4987 52.817 52.648 53.3823 52.776C53.9476 52.904 54.5023 52.9733 55.0463 52.984V49.752C53.9903 49.464 53.217 49.1013 52.7263 48.664C52.2356 48.2267 51.9903 47.6293 51.9903 46.872C51.9903 46.0827 52.2623 45.464 52.8063 45.016C53.361 44.568 54.1076 44.3173 55.0463 44.264V42.856H56.0703V44.248C56.6356 44.2587 57.1476 44.3227 57.6063 44.44C58.0756 44.5467 58.5023 44.68 58.8863 44.84L58.4543 46.024C58.113 45.8853 57.7343 45.768 57.3183 45.672C56.913 45.5653 56.497 45.496 56.0703 45.464V48.68C56.7743 48.8827 57.361 49.1013 57.8303 49.336C58.2996 49.56 58.6516 49.8427 58.8863 50.184C59.1316 50.5147 59.2543 50.9467 59.2543 51.48C59.2543 52.2267 58.977 52.8347 58.4223 53.304C57.8676 53.7627 57.0836 54.0453 56.0703 54.152V55.928H55.0463ZM55.0463 48.328V45.496C54.4703 45.5387 54.0436 45.672 53.7663 45.896C53.4996 46.12 53.3663 46.408 53.3663 46.76C53.3663 47.1867 53.4836 47.5173 53.7183 47.752C53.9636 47.976 54.4063 48.168 55.0463 48.328ZM56.0703 52.904C56.6996 52.84 57.1583 52.696 57.4463 52.472C57.7343 52.2373 57.8783 51.9387 57.8783 51.576C57.8783 51.1707 57.7503 50.8667 57.4943 50.664C57.2383 50.4507 56.7636 50.2587 56.0703 50.088V52.904Z" fill="#484848"/>
<circle cx="55.4983" cy="49.5" r="8.5" stroke="#484848" stroke-width="2"/>
<rect x="66.9983" y="44" width="17" height="4" rx="2" stroke="#484848" stroke-width="2"/>
<rect x="66.9983" y="48" width="17" height="4" rx="2" stroke="#484848" stroke-width="2"/>
<rect x="66.9983" y="52" width="17" height="4" rx="2" stroke="#484848" stroke-width="2"/>
<path d="M95.0463 47.928V46.216C94.4596 46.2053 93.889 46.1573 93.3343 46.072C92.7796 45.976 92.3316 45.848 91.9903 45.688V44.328C92.353 44.4987 92.817 44.648 93.3823 44.776C93.9476 44.904 94.5023 44.9733 95.0463 44.984V41.752C93.9903 41.464 93.217 41.1013 92.7263 40.664C92.2356 40.2267 91.9903 39.6293 91.9903 38.872C91.9903 38.0827 92.2623 37.464 92.8063 37.016C93.361 36.568 94.1076 36.3173 95.0463 36.264V34.856H96.0703V36.248C96.6356 36.2587 97.1476 36.3227 97.6063 36.44C98.0756 36.5467 98.5023 36.68 98.8863 36.84L98.4543 38.024C98.113 37.8853 97.7343 37.768 97.3183 37.672C96.913 37.5653 96.497 37.496 96.0703 37.464V40.68C96.7743 40.8827 97.361 41.1013 97.8303 41.336C98.2996 41.56 98.6516 41.8427 98.8863 42.184C99.1316 42.5147 99.2543 42.9467 99.2543 43.48C99.2543 44.2267 98.977 44.8347 98.4223 45.304C97.8676 45.7627 97.0836 46.0453 96.0703 46.152V47.928H95.0463ZM95.0463 40.328V37.496C94.4703 37.5387 94.0436 37.672 93.7663 37.896C93.4996 38.12 93.3663 38.408 93.3663 38.76C93.3663 39.1867 93.4836 39.5173 93.7183 39.752C93.9636 39.976 94.4063 40.168 95.0463 40.328ZM96.0703 44.904C96.6996 44.84 97.1583 44.696 97.4463 44.472C97.7343 44.2373 97.8783 43.9387 97.8783 43.576C97.8783 43.1707 97.7503 42.8667 97.4943 42.664C97.2383 42.4507 96.7636 42.2587 96.0703 42.088V44.904Z" fill="#484848"/>
<circle cx="95.4983" cy="41.5" r="8.5" stroke="#484848" stroke-width="2"/>
<rect x="86.9983" y="52" width="17" height="4" rx="2" stroke="#484848" stroke-width="2"/>
<rect x="46.9983" y="60" width="17" height="4" rx="2" stroke="#484848" stroke-width="2"/>
<rect x="86.9983" y="56" width="17" height="4" rx="2" stroke="#484848" stroke-width="2"/>
<rect x="86.9983" y="60" width="17" height="4" rx="2" stroke="#484848" stroke-width="2"/>
<rect x="66.9983" y="56" width="17" height="4" rx="2" stroke="#484848" stroke-width="2"/>
<rect x="66.9983" y="60" width="17" height="4" rx="2" stroke="#484848" stroke-width="2"/>
</svg>
