<svg width="200" height="150" viewBox="0 0 200 150" fill="none" xmlns="http://www.w3.org/2000/svg">
<path d="M163.577 76.8983C162.916 78.3261 162.201 79.7011 161.263 80.9745C157.024 86.7341 151.487 91.7212 145.912 96.1333C139.37 101.309 132.226 105.631 124.2 108.055C117.46 110.091 110.339 110.945 103.309 110.814C98.6918 110.728 95.7339 110.255 93.0523 109.507M93.0523 109.507C95.9244 110.308 92.341 109.19 93.0523 109.507Z" stroke="black" stroke-width="1.8" stroke-linecap="round" stroke-linejoin="round"/>
<path d="M148.197 94.2462C148.86 98.2884 148.553 101.979 147.717 106.031C147.163 108.72 146.728 111.527 145.734 114.093C145.41 114.93 144.997 115.644 144.26 116.17C143.317 116.844 143.674 113.049 143.767 112.489C144.016 110.997 143.733 111.501 143.983 109.998C144.438 107.267 145.079 104.611 145.532 101.885C145.825 100.128 146.403 97.8521 148.423 95.955" stroke="black" stroke-width="1.8" stroke-linecap="round" stroke-linejoin="round"/>
<path d="M143.138 97.7842C139.595 95.7861 136.062 94.8946 132.022 94.4261C129.34 94.1152 126.588 93.643 123.877 93.8219C122.993 93.8802 122.195 94.0695 121.465 94.6511C120.531 95.3961 124.177 96.2701 124.728 96.3578C126.196 96.5909 125.635 96.7157 127.115 96.9508C129.803 97.3776 132.482 97.5892 135.165 98.0153C136.895 98.2901 139.2 98.4422 141.623 96.9954" stroke="black" stroke-width="1.8" stroke-linecap="round" stroke-linejoin="round"/>
<path d="M133.904 103.668C130.863 101.607 127.755 100.589 124.163 99.9447C121.78 99.5172 119.343 98.934 116.9 98.9669C116.102 98.9776 115.374 99.1161 114.68 99.628C113.791 100.284 117.001 101.291 117.49 101.401C118.79 101.694 118.278 101.784 119.59 102.08C121.971 102.617 124.359 102.951 126.737 103.487C128.27 103.833 130.327 104.091 132.599 102.849" stroke="black" stroke-width="1.8" stroke-linecap="round" stroke-linejoin="round"/>
<path d="M140.556 99.9741C139.63 104.107 138.047 107.671 135.906 111.471C134.485 113.993 133.118 116.658 131.386 118.958C130.821 119.709 130.229 120.317 129.443 120.667C128.436 121.115 130.097 117.46 130.375 116.929C131.116 115.517 130.704 115.948 131.45 114.525C132.806 111.939 134.285 109.47 135.638 106.889C136.51 105.225 137.8 103.116 140.12 101.709" stroke="black" stroke-width="1.8" stroke-linecap="round" stroke-linejoin="round"/>
<path d="M129.247 106.404C128.711 110.158 127.41 113.327 125.539 116.663C124.297 118.878 123.129 121.231 121.53 123.212C121.008 123.859 120.442 124.371 119.64 124.626C118.613 124.953 119.988 121.707 120.227 121.238C120.863 119.993 120.471 120.358 121.112 119.103C122.277 116.823 123.587 114.662 124.749 112.386C125.499 110.919 126.646 109.075 128.972 107.975" stroke="black" stroke-width="1.8" stroke-linecap="round" stroke-linejoin="round"/>
<path d="M119.982 108.518C117.603 106.182 114.995 104.79 111.894 103.667C109.835 102.921 107.756 102.026 105.569 101.692C104.855 101.583 104.182 101.601 103.479 101.965C102.578 102.431 105.279 103.829 105.698 104.002C106.811 104.464 106.339 104.469 107.462 104.935C109.5 105.78 111.578 106.441 113.613 107.284C114.925 107.829 116.719 108.371 118.95 107.575" stroke="black" stroke-width="1.8" stroke-linecap="round" stroke-linejoin="round"/>
<path d="M120.862 109.566C119.897 112.806 118.265 115.321 116.063 117.84C114.602 119.512 113.196 121.327 111.418 122.696C110.838 123.143 110.232 123.457 109.429 123.479C108.401 123.508 110.113 120.942 110.399 120.582C111.161 119.626 110.74 119.853 111.508 118.889C112.902 117.139 114.422 115.533 115.814 113.786C116.712 112.659 118.038 111.297 120.409 110.909" stroke="black" stroke-width="1.8" stroke-linecap="round" stroke-linejoin="round"/>
<path d="M112.841 110.387C112.079 113.373 110.64 115.646 108.654 117.894C107.336 119.385 106.078 121.014 104.441 122.207C103.907 122.596 103.341 122.86 102.572 122.84C101.586 122.814 103.1 120.498 103.356 120.176C104.039 119.319 103.646 119.51 104.334 118.646C105.584 117.077 106.962 115.65 108.21 114.084C109.014 113.074 110.218 111.866 112.474 111.622" stroke="black" stroke-width="1.8" stroke-linecap="round" stroke-linejoin="round"/>
<path d="M106.384 110.157C105.861 108.161 104.833 106.79 103.403 105.532C102.454 104.697 101.551 103.754 100.364 103.187C99.9771 103.002 99.5648 102.912 98.9996 103.06C98.2755 103.249 99.3577 104.638 99.5421 104.824C100.033 105.316 99.7464 105.248 100.241 105.745C101.139 106.646 102.133 107.425 103.029 108.325C103.607 108.905 104.476 109.558 106.13 109.34" stroke="black" stroke-width="1.8" stroke-linecap="round" stroke-linejoin="round"/>
<path d="M103.03 111.199C102.157 113.37 100.814 114.821 99.041 116.124C97.8643 116.988 96.7224 117.975 95.3209 118.529C94.8637 118.71 94.3926 118.784 93.7864 118.588C93.0099 118.336 94.4158 116.868 94.6478 116.675C95.2649 116.161 94.9371 116.219 95.5592 115.701C96.6891 114.759 97.9072 113.96 99.0352 113.021C99.7626 112.415 100.823 111.746 102.628 112.085" stroke="black" stroke-width="1.8" stroke-linecap="round" stroke-linejoin="round"/>
<path d="M88.684 110.231C90.2039 110.427 91.0531 110.21 92.529 109.158C91.7733 107.709 91.1276 107.435 90.4701 107.409C89.3637 107.364 87.8344 107.688 87.8344 107.688C87.3489 107.868 86.2801 107.922 85.7223 107.9C84.8188 107.863 84.2268 107.197 84.5015 107.9C84.7159 108.448 85.4353 108.993 85.7535 109.159C86.7288 109.671 87.6753 110.101 88.684 110.231Z" stroke="black" stroke-width="1.8" stroke-linecap="round" stroke-linejoin="round"/>
<path d="M98.6996 110.24C98.8645 108.466 98.3651 107.179 97.4615 105.949C96.8618 105.132 96.3386 104.227 95.4349 103.617C95.14 103.418 93.6951 102.161 93.1302 102.231C92.4066 102.32 93.7472 104.345 93.8563 104.524C94.1467 104.998 94.2056 105.33 94.4983 105.809C95.0299 106.678 95.6888 107.45 96.2195 108.318C96.5617 108.877 97.1465 109.528 98.7304 109.51" stroke="black" stroke-width="1.8" stroke-linecap="round" stroke-linejoin="round"/>
<path d="M39.9983 73.5C39.9983 68.8056 43.8039 65 48.4983 65H110.998V82H48.4983C43.8039 82 39.9983 78.1944 39.9983 73.5V73.5Z" fill="#70A076"/>
<rect x="38.9983" y="64" width="125" height="19" rx="9.5" stroke="black" stroke-width="2"/>
<path d="M75.0463 39.9282V38.2162C74.4596 38.2056 73.889 38.1576 73.3343 38.0722C72.7796 37.9762 72.3316 37.8482 71.9903 37.6882V36.3282C72.353 36.4989 72.817 36.6482 73.3823 36.7762C73.9476 36.9042 74.5023 36.9736 75.0463 36.9842V33.7522C73.9903 33.4642 73.217 33.1016 72.7263 32.6642C72.2356 32.2269 71.9903 31.6296 71.9903 30.8722C71.9903 30.0829 72.2623 29.4642 72.8063 29.0162C73.361 28.5682 74.1076 28.3176 75.0463 28.2642V26.8562H76.0703V28.2482C76.6356 28.2589 77.1476 28.3229 77.6063 28.4402C78.0756 28.5469 78.5023 28.6802 78.8863 28.8402L78.4543 30.0242C78.113 29.8856 77.7343 29.7682 77.3183 29.6722C76.913 29.5656 76.497 29.4962 76.0703 29.4642V32.6802C76.7743 32.8829 77.361 33.1016 77.8303 33.3362C78.2996 33.5602 78.6516 33.8429 78.8863 34.1842C79.1316 34.5149 79.2543 34.9469 79.2543 35.4802C79.2543 36.2269 78.977 36.8349 78.4223 37.3042C77.8676 37.7629 77.0836 38.0456 76.0703 38.1522V39.9282H75.0463ZM75.0463 32.3282V29.4962C74.4703 29.5389 74.0436 29.6722 73.7663 29.8962C73.4996 30.1202 73.3663 30.4082 73.3663 30.7602C73.3663 31.1869 73.4836 31.5176 73.7183 31.7522C73.9636 31.9762 74.4063 32.1682 75.0463 32.3282ZM76.0703 36.9042C76.6996 36.8402 77.1583 36.6962 77.4463 36.4722C77.7343 36.2376 77.8783 35.9389 77.8783 35.5762C77.8783 35.1709 77.7503 34.8669 77.4943 34.6642C77.2383 34.4509 76.7636 34.2589 76.0703 34.0882V36.9042Z" fill="black"/>
<circle cx="75.4983" cy="33.5002" r="8.5" stroke="black" stroke-width="2"/>
<path d="M55.0463 55.9282V54.2162C54.4596 54.2056 53.889 54.1576 53.3343 54.0722C52.7796 53.9762 52.3316 53.8482 51.9903 53.6882V52.3282C52.353 52.4989 52.817 52.6482 53.3823 52.7762C53.9476 52.9042 54.5023 52.9736 55.0463 52.9842V49.7522C53.9903 49.4642 53.217 49.1016 52.7263 48.6642C52.2356 48.2269 51.9903 47.6296 51.9903 46.8722C51.9903 46.0829 52.2623 45.4642 52.8063 45.0162C53.361 44.5682 54.1076 44.3176 55.0463 44.2642V42.8562H56.0703V44.2482C56.6356 44.2589 57.1476 44.3229 57.6063 44.4402C58.0756 44.5469 58.5023 44.6802 58.8863 44.8402L58.4543 46.0242C58.113 45.8856 57.7343 45.7682 57.3183 45.6722C56.913 45.5656 56.497 45.4962 56.0703 45.4642V48.6802C56.7743 48.8829 57.361 49.1016 57.8303 49.3362C58.2996 49.5602 58.6516 49.8429 58.8863 50.1842C59.1316 50.5149 59.2543 50.9469 59.2543 51.4802C59.2543 52.2269 58.977 52.8349 58.4223 53.3042C57.8676 53.7629 57.0836 54.0456 56.0703 54.1522V55.9282H55.0463ZM55.0463 48.3282V45.4962C54.4703 45.5389 54.0436 45.6722 53.7663 45.8962C53.4996 46.1202 53.3663 46.4082 53.3663 46.7602C53.3663 47.1869 53.4836 47.5176 53.7183 47.7522C53.9636 47.9762 54.4063 48.1682 55.0463 48.3282ZM56.0703 52.9042C56.6996 52.8402 57.1583 52.6962 57.4463 52.4722C57.7343 52.2376 57.8783 51.9389 57.8783 51.5762C57.8783 51.1709 57.7503 50.8669 57.4943 50.6642C57.2383 50.4509 56.7636 50.2589 56.0703 50.0882V52.9042Z" fill="black"/>
<circle cx="55.4983" cy="49.5002" r="8.5" stroke="black" stroke-width="2"/>
<rect x="66.9983" y="44.0002" width="17" height="4" rx="2" stroke="black" stroke-width="2"/>
<rect x="66.9983" y="48.0002" width="17" height="4" rx="2" stroke="black" stroke-width="2"/>
<rect x="66.9983" y="52.0002" width="17" height="4" rx="2" stroke="black" stroke-width="2"/>
<path d="M95.0463 47.9282V46.2162C94.4596 46.2056 93.889 46.1576 93.3343 46.0722C92.7796 45.9762 92.3316 45.8482 91.9903 45.6882V44.3282C92.353 44.4989 92.817 44.6482 93.3823 44.7762C93.9476 44.9042 94.5023 44.9736 95.0463 44.9842V41.7522C93.9903 41.4642 93.217 41.1016 92.7263 40.6642C92.2356 40.2269 91.9903 39.6296 91.9903 38.8722C91.9903 38.0829 92.2623 37.4642 92.8063 37.0162C93.361 36.5682 94.1076 36.3176 95.0463 36.2642V34.8562H96.0703V36.2482C96.6356 36.2589 97.1476 36.3229 97.6063 36.4402C98.0756 36.5469 98.5023 36.6802 98.8863 36.8402L98.4543 38.0242C98.113 37.8856 97.7343 37.7682 97.3183 37.6722C96.913 37.5656 96.497 37.4962 96.0703 37.4642V40.6802C96.7743 40.8829 97.361 41.1016 97.8303 41.3362C98.2996 41.5602 98.6516 41.8429 98.8863 42.1842C99.1316 42.5149 99.2543 42.9469 99.2543 43.4802C99.2543 44.2269 98.977 44.8349 98.4223 45.3042C97.8676 45.7629 97.0836 46.0456 96.0703 46.1522V47.9282H95.0463ZM95.0463 40.3282V37.4962C94.4703 37.5389 94.0436 37.6722 93.7663 37.8962C93.4996 38.1202 93.3663 38.4082 93.3663 38.7602C93.3663 39.1869 93.4836 39.5176 93.7183 39.7522C93.9636 39.9762 94.4063 40.1682 95.0463 40.3282ZM96.0703 44.9042C96.6996 44.8402 97.1583 44.6962 97.4463 44.4722C97.7343 44.2376 97.8783 43.9389 97.8783 43.5762C97.8783 43.1709 97.7503 42.8669 97.4943 42.6642C97.2383 42.4509 96.7636 42.2589 96.0703 42.0882V44.9042Z" fill="black"/>
<circle cx="95.4983" cy="41.5002" r="8.5" stroke="black" stroke-width="2"/>
<rect x="86.9983" y="52.0002" width="17" height="4" rx="2" stroke="black" stroke-width="2"/>
<rect x="46.9983" y="60.0002" width="17" height="4" rx="2" stroke="black" stroke-width="2"/>
<rect x="86.9983" y="56.0002" width="17" height="4" rx="2" stroke="black" stroke-width="2"/>
<rect x="86.9983" y="60.0002" width="17" height="4" rx="2" stroke="black" stroke-width="2"/>
<rect x="66.9983" y="56.0002" width="17" height="4" rx="2" stroke="black" stroke-width="2"/>
<rect x="66.9983" y="60.0002" width="17" height="4" rx="2" stroke="black" stroke-width="2"/>
</svg>
