<svg width="200" height="150" viewBox="0 0 200 150" fill="none" xmlns="http://www.w3.org/2000/svg">
<rect x="-1" y="1" width="59" height="62" rx="1" transform="matrix(-1 0 0 1 162.421 52)" fill="#F7F7F7" stroke="black" stroke-width="2"/>
<rect x="167.421" y="52.9944" width="67" height="13" rx="1" transform="rotate(-180 167.421 52.9944)" fill="#F7F7F7" stroke="black" stroke-width="2"/>
<rect x="137.421" y="40" width="75" height="8" transform="rotate(90 137.421 40)" fill="#70A076" stroke="black" stroke-width="2"/>
<path d="M145.497 32.7859C146.386 32.0322 147.006 31.2462 147.146 30.3875C147.492 28.2686 146.291 25.762 143.817 24.3669C142.403 23.5695 140.976 23.6025 139.696 24.1461C138.39 24.7011 137.236 25.7952 136.505 27.0923C136.313 27.4324 136.11 28.0396 135.922 28.9C135.74 29.7383 135.588 30.7399 135.465 31.815C135.221 33.9642 135.1 36.3466 135.075 38.1812C135.069 38.6286 135.129 38.8964 135.19 39.039C135.218 39.1055 135.242 39.134 135.249 39.1422C135.251 39.1446 135.253 39.1459 135.254 39.1466C135.255 39.1471 135.274 39.1549 135.321 39.1566C135.37 39.1584 135.449 39.153 135.559 39.1266C135.786 39.0726 136.098 38.9435 136.493 38.7025C137.228 38.2537 137.924 37.8359 138.588 37.4375C141.289 35.817 143.45 34.52 145.497 32.7859Z" stroke="black" stroke-width="2"/>
<path d="M122.901 29.7926C122.226 29.041 121.728 28.3101 121.55 27.5256C120.957 24.9192 122.206 22.153 124.71 20.9281C126.497 20.0543 128.509 20.165 130.134 21.0532C131.02 21.5378 131.545 22.3739 131.85 23.5166C132.16 24.6804 132.211 26.0435 132.221 27.4243C132.252 31.4175 132.832 36.1051 133.192 38.9576C133.203 39.0379 133.21 39.1119 133.216 39.1801C133.123 39.1141 133.022 39.0356 132.91 38.9435C128.761 35.5025 125.727 32.9386 122.901 29.7926ZM133.2 39.71C133.2 39.71 133.2 39.7096 133.2 39.7088C133.2 39.7096 133.2 39.71 133.2 39.71Z" stroke="black" stroke-width="2"/>
<path d="M132.467 39.8387C124.593 29.9233 119.982 44.1483 113.053 30.2044" stroke="black" stroke-width="2"/>
<path d="M106.439 94.6306C105.835 93.1084 105.172 91.6379 104.272 90.26C100.202 84.0276 94.7392 78.5225 89.2022 73.6127C82.7062 67.8525 75.5339 62.9451 67.3345 59.9584C60.4497 57.4506 53.0989 56.1474 45.7863 55.8739C40.9832 55.6942 37.8818 56.014 35.0515 56.6349M35.0515 56.6349C38.0828 55.9699 34.2939 56.9229 35.0515 56.6349Z" stroke="black" stroke-width="1.8" stroke-linecap="round" stroke-linejoin="round"/>
<path d="M91.4674 75.7067C92.3914 71.5449 92.2876 67.6916 91.6554 63.4326C91.2358 60.606 90.9477 57.6638 90.0641 54.9389C89.7758 54.0498 89.3885 53.2847 88.6539 52.6949C87.7128 51.9394 87.8628 55.9036 87.9271 56.4916C88.0982 58.0559 87.8335 57.5154 88.006 59.0924C88.3192 61.9565 88.8307 64.7537 89.1433 67.6129C89.345 69.4567 89.8128 71.855 91.8013 73.9441" stroke="black" stroke-width="1.8" stroke-linecap="round" stroke-linejoin="round"/>
<path d="M86.4164 71.7352C82.6178 73.605 78.8949 74.3257 74.6688 74.577C71.8641 74.7438 68.9766 75.0741 66.1698 74.7303C65.2541 74.6181 64.4361 74.3749 63.712 73.728C62.7843 72.8994 66.6237 72.2035 67.2023 72.1446C68.7413 71.9879 68.1654 71.8255 69.717 71.6675C72.5349 71.3805 75.3311 71.3168 78.1442 71.0304C79.9583 70.8456 82.362 70.8219 84.7953 72.4666" stroke="black" stroke-width="1.8" stroke-linecap="round" stroke-linejoin="round"/>
<path d="M77.1632 65.0826C73.8826 67.0478 70.5942 67.9243 66.824 68.3844C64.3218 68.6898 61.7563 69.1538 59.2187 68.9773C58.3908 68.9197 57.6418 68.7333 56.9504 68.1609C56.0646 67.4277 59.459 66.5684 59.9736 66.4823C61.3423 66.2532 60.8156 66.1303 62.1954 65.8994C64.7015 65.4799 67.2028 65.2723 69.7046 64.8536C71.3179 64.5835 73.4701 64.4344 75.7588 65.8584" stroke="black" stroke-width="1.8" stroke-linecap="round" stroke-linejoin="round"/>
<path d="M83.8606 69.3093C83.1391 64.9611 81.7019 61.1643 79.6982 57.0912C78.3685 54.388 77.1036 51.5387 75.4374 49.0472C74.8938 48.2342 74.3143 47.5679 73.5179 47.1583C72.4976 46.6337 74.0109 50.5295 74.2691 51.0974C74.956 52.6079 74.5538 52.1351 75.2463 53.6579C76.5039 56.4237 77.8971 59.0758 79.1525 61.8369C79.9621 63.6174 81.1801 65.8842 83.5089 67.4815" stroke="black" stroke-width="1.8" stroke-linecap="round" stroke-linejoin="round"/>
<path d="M72.483 61.9683C72.1447 58.0361 70.9778 54.6676 69.2275 51.091C68.0659 48.7173 66.9892 46.2044 65.443 44.0519C64.9385 43.3496 64.3805 42.7847 63.5622 42.4729C62.5141 42.0734 63.753 45.5267 63.9742 46.0271C64.5627 47.358 64.1764 46.9565 64.7696 48.2983C65.8471 50.7352 67.0822 53.0569 68.1578 55.4896C68.8514 57.0584 69.9365 59.0407 72.2886 60.3192" stroke="black" stroke-width="1.8" stroke-linecap="round" stroke-linejoin="round"/>
<path d="M62.9781 59.2316C60.3704 61.52 57.5791 62.8147 54.2906 63.8013C52.1081 64.4561 49.8948 65.2654 47.6026 65.4851C46.8547 65.5568 46.1565 65.4989 45.4468 65.0798C44.5378 64.5428 47.4264 63.2479 47.8715 63.0919C49.0552 62.677 48.5655 62.6438 49.7589 62.2256C51.9263 61.4659 54.124 60.9006 56.2877 60.1423C57.683 59.6533 59.5787 59.1938 61.8511 60.1514" stroke="black" stroke-width="1.8" stroke-linecap="round" stroke-linejoin="round"/>
<path d="M63.9544 58.1937C63.1401 54.7706 61.591 52.0617 59.4497 49.316C58.0286 47.4937 56.6726 45.5256 54.9055 43.9988C54.3289 43.5007 53.7173 43.1388 52.8844 43.0692C51.8174 42.9799 53.4469 45.746 53.7236 46.1362C54.4593 47.174 54.0347 46.9141 54.7765 47.9603C56.1236 49.8605 57.6097 51.6176 58.9546 53.5145C59.8218 54.7378 61.1203 56.2303 63.5619 56.7715" stroke="black" stroke-width="1.8" stroke-linecap="round" stroke-linejoin="round"/>
<path d="M55.667 56.873C55.0484 53.7259 53.6855 51.2799 51.7529 48.8284C50.4702 47.2014 49.2576 45.4354 47.6265 44.1005C47.0943 43.665 46.5216 43.358 45.721 43.3339C44.6954 43.303 46.133 45.7985 46.381 46.1482C47.0404 47.0784 46.6433 46.8572 47.3081 47.7949C48.5155 49.498 49.8641 51.0612 51.0695 52.7614C51.8468 53.8578 53.0272 55.1837 55.3577 55.5682" stroke="black" stroke-width="1.8" stroke-linecap="round" stroke-linejoin="round"/>
<path d="M49.9821 56.7942C49.323 58.8383 48.1748 60.2031 46.6155 61.427C45.5807 62.2393 44.5869 63.1666 43.3206 63.6862C42.9075 63.8557 42.4739 63.925 41.8951 63.7386C41.1537 63.4998 42.3592 62.1194 42.5616 61.9378C43.1 61.4546 42.7987 61.5085 43.3415 61.0214C44.3273 60.1368 45.4053 59.3858 46.3895 58.5027C47.0241 57.9332 47.9648 57.3055 49.6708 57.6283" stroke="black" stroke-width="1.8" stroke-linecap="round" stroke-linejoin="round"/>
<path d="M45.519 55.4576C44.7381 53.1508 43.4269 51.5646 41.6603 50.1077C40.4879 49.1409 39.3588 48.0492 37.9347 47.3916C37.4701 47.177 36.985 47.0721 36.3436 47.241C35.5219 47.4574 36.8973 49.0646 37.1272 49.2789C37.7385 49.849 37.4012 49.7698 38.0175 50.3445C39.1369 51.3883 40.3561 52.29 41.4735 53.3321C42.1941 54.004 43.2574 54.7603 45.153 54.5136" stroke="black" stroke-width="1.8" stroke-linecap="round" stroke-linejoin="round"/>
<path d="M30.5544 55.6273C32.1452 55.5127 33.0151 55.7874 34.4874 56.9666C33.6177 58.4284 32.9308 58.6749 32.246 58.6642C31.0936 58.6461 29.5233 58.2211 29.5233 58.2211C29.0292 58.0055 27.9217 57.8866 27.3407 57.8775C26.3998 57.8629 24.6077 58.5922 24.9341 57.8777C25.1888 57.3199 27.1062 56.725 27.4466 56.5702C28.4899 56.0956 29.4986 55.7034 30.5544 55.6273Z" stroke="black" stroke-width="1.8" stroke-linecap="round" stroke-linejoin="round"/>
<path d="M40.6756 56.7876C40.4451 58.661 39.6329 59.8486 38.412 60.8663C37.6017 61.5418 36.8512 62.3296 35.771 62.7077C35.4185 62.831 33.6274 63.7267 33.0544 63.4988C32.3203 63.2068 34.177 61.4907 34.3313 61.3371C34.7415 60.9285 34.8783 60.6025 35.2919 60.1905C36.043 59.4423 36.9049 58.8287 37.6547 58.0818C38.1383 57.6001 38.8956 57.0908 40.5421 57.5482" stroke="black" stroke-width="1.8" stroke-linecap="round" stroke-linejoin="round"/>
<path d="M97.6859 96.1856C98.0888 94.7454 98.4195 93.3095 98.5272 91.8103C99.0141 85.0295 98.086 78.007 96.7751 71.3763C95.2371 63.5973 92.736 56.0644 88.4263 49.36C84.8075 43.7305 80.184 38.719 75.019 34.4774C71.6264 31.6913 69.1949 30.2092 66.7941 29.0958M66.7941 29.0958C69.3655 30.2882 66.0841 28.8863 66.7941 29.0958Z" stroke="black" stroke-width="1.8" stroke-linecap="round" stroke-linejoin="round"/>
<path d="M95.2708 65.2948C97.1504 61.7348 98.2046 58.18 98.9998 54.1111C99.5275 51.4107 100.183 48.64 100.349 45.9075C100.404 45.0159 100.351 44.2111 99.9981 43.4731C99.5465 42.5276 98.4928 46.1965 98.3666 46.7521C98.0308 48.23 97.9998 47.6639 97.6613 49.1538C97.0465 51.8598 96.5931 54.5581 95.9793 57.2595C95.5836 59.0015 95.2157 61.3229 96.0258 63.7716" stroke="black" stroke-width="1.8" stroke-linecap="round" stroke-linejoin="round"/>
<path d="M91.058 53.6678C92.986 50.6222 94 47.5281 94.7049 43.9603C95.1727 41.5924 95.7792 39.1702 95.8451 36.7505C95.8666 35.9611 95.7733 35.2419 95.3508 34.5628C94.8097 33.6929 93.8012 36.8884 93.6854 37.3745C93.3773 38.6674 93.3185 38.1619 93.008 39.4654C92.444 41.8327 92.0584 44.2034 91.4954 46.5667C91.1323 48.0906 90.8252 50.1316 91.8283 52.3615" stroke="black" stroke-width="1.8" stroke-linecap="round" stroke-linejoin="round"/>
<path d="M84.07 45.2502C81.0738 46.2816 78.2665 46.4096 75.1455 46.1051C73.0743 45.903 70.9234 45.8208 68.91 45.213C68.2531 45.0146 67.683 44.724 67.2283 44.1241C66.6459 43.3555 69.5356 43.2611 69.9657 43.2833C71.1099 43.3425 70.7074 43.1448 71.8609 43.2045C73.9557 43.3128 76.0088 43.5957 78.1001 43.7039C79.4487 43.7736 81.21 44.0415 82.7991 45.6375" stroke="black" stroke-width="1.8" stroke-linecap="round" stroke-linejoin="round"/>
<path d="M86.9446 46.2087C88.2451 43.2699 88.6165 40.4441 88.5778 37.2641C88.5521 35.1537 88.6545 32.9732 88.2139 30.8862C88.0701 30.2053 87.8256 29.6041 87.2585 29.093C86.5321 28.4382 86.1876 31.3501 86.1729 31.7867C86.1341 32.9479 85.9691 32.5242 85.9299 33.6949C85.8588 35.8211 85.9677 37.9202 85.8967 40.0427C85.8509 41.4115 85.9697 43.2144 87.4455 44.9578" stroke="black" stroke-width="1.8" stroke-linecap="round" stroke-linejoin="round"/>
<path d="M81.6498 40.6666C82.94 38.0368 83.3015 35.505 83.2518 32.6543C83.2188 30.7624 83.3136 28.8081 82.8658 26.9358C82.7197 26.3249 82.4731 25.7852 81.9043 25.325C81.1758 24.7356 80.8413 27.3446 80.8282 27.7359C80.7934 28.7767 80.6269 28.3963 80.5918 29.4456C80.5281 31.3513 80.6443 33.2333 80.5806 35.1358C80.5396 36.3626 80.6647 37.9791 82.1463 39.547" stroke="black" stroke-width="1.8" stroke-linecap="round" stroke-linejoin="round"/>
<path d="M77.5604 37.4666C75.9512 38.5882 74.3619 38.9456 72.5516 38.9734C71.3502 38.9918 70.1151 39.1165 68.9072 38.7941C68.5132 38.689 68.1596 38.4996 67.8419 38.0441C67.435 37.4606 69.0745 37.1235 69.3221 37.1034C69.9806 37.0498 69.7318 36.9224 70.3957 36.8684C71.6014 36.7703 72.8003 36.8204 74.004 36.7224C74.7802 36.6592 75.8112 36.723 76.8729 37.9008" stroke="black" stroke-width="1.8" stroke-linecap="round" stroke-linejoin="round"/>
<path d="M75.0547 34.0272C75.7623 31.9184 75.6861 30.0403 75.2072 28.0045C74.8894 26.6534 74.672 25.2356 74.0004 23.9702C73.7812 23.5573 73.4865 23.2128 72.9268 22.981C72.2099 22.6841 72.3212 24.6129 72.3698 24.8958C72.4991 25.6482 72.2977 25.4042 72.428 26.1627C72.6647 27.5404 73.0525 28.87 73.2888 30.2453C73.4411 31.1322 73.796 32.2699 75.3106 33.1385" stroke="black" stroke-width="1.8" stroke-linecap="round" stroke-linejoin="round"/>
<path d="M62.6234 28.0334C63.8163 28.8693 64.6269 29.062 66.3339 28.8284C66.3378 27.2749 65.9151 26.7595 65.3734 26.4468C64.4617 25.9204 63.0317 25.5171 63.0317 25.5171C62.5434 25.4543 61.6197 25.0281 61.1601 24.7627C60.4158 24.3328 59.3534 22.9208 59.274 23.6339C59.2121 24.1905 60.4358 25.556 60.6299 25.837C61.225 26.6982 61.8316 27.4786 62.6234 28.0334Z" stroke="black" stroke-width="1.8" stroke-linecap="round" stroke-linejoin="round"/>
<path d="M71.7215 32.7436C70.5104 33.9203 69.2615 34.3213 67.8122 34.3932C66.8504 34.4409 65.869 34.5973 64.878 34.2995C64.5546 34.2023 62.7615 33.8945 62.4747 33.4401C62.1072 32.858 64.4052 32.6322 64.6023 32.6058C65.1264 32.5355 65.407 32.3808 65.9354 32.31C66.8951 32.1813 67.8598 32.2031 68.8179 32.0747C69.4357 31.9919 70.2667 32.0316 71.2009 33.2007" stroke="black" stroke-width="1.8" stroke-linecap="round" stroke-linejoin="round"/>
<rect x="57.4207" y="90.9944" width="59" height="30" rx="1" fill="#F7F7F7" stroke="black" stroke-width="2"/>
<rect x="1" y="-1" width="67" height="13" rx="1" transform="matrix(1 0 0 -1 52.4207 89.9944)" fill="#F7F7F7" stroke="black" stroke-width="2"/>
<rect x="1" y="1" width="43" height="8" transform="matrix(-4.37114e-08 1 1 4.37114e-08 82.4207 76.9944)" fill="#70A076" stroke="black" stroke-width="2"/>
</svg>
