<svg width="200" height="150" viewBox="0 0 200 150" fill="none" xmlns="http://www.w3.org/2000/svg">
<ellipse cx="111" cy="118.5" rx="65" ry="15.5" fill="#F4F4F4"/>
<rect x="-1" y="1" width="59" height="62" rx="1" transform="matrix(-1 0 0 1 162.421 52)" fill="#F7F7F7" stroke="#484848" stroke-width="2"/>
<rect x="167.421" y="52.9941" width="67" height="13" rx="1" transform="rotate(-180 167.421 52.9941)" fill="#F7F7F7" stroke="#484848" stroke-width="2"/>
<rect x="137.421" y="40" width="75" height="8" transform="rotate(90 137.421 40)" fill="#70A076" stroke="#484848" stroke-width="2"/>
<path d="M145.497 32.7859C146.386 32.0322 147.006 31.2462 147.146 30.3875C147.492 28.2686 146.291 25.762 143.817 24.3669C142.403 23.5695 140.976 23.6025 139.696 24.1461C138.39 24.7011 137.236 25.7952 136.505 27.0923C136.313 27.4324 136.11 28.0396 135.922 28.9C135.74 29.7383 135.588 30.7399 135.465 31.815C135.221 33.9642 135.1 36.3466 135.075 38.1812C135.069 38.6286 135.129 38.8964 135.19 39.039C135.218 39.1055 135.242 39.134 135.249 39.1422C135.251 39.1446 135.253 39.1459 135.254 39.1466C135.255 39.1471 135.274 39.1549 135.321 39.1566C135.37 39.1584 135.449 39.153 135.559 39.1266C135.786 39.0726 136.098 38.9435 136.493 38.7025C137.228 38.2537 137.924 37.8359 138.588 37.4375C141.289 35.817 143.45 34.52 145.497 32.7859Z" stroke="#484848" stroke-width="2"/>
<path d="M122.901 29.7923C122.226 29.0407 121.728 28.3098 121.55 27.5254C120.957 24.919 122.206 22.1528 124.71 20.9279C126.497 20.054 128.509 20.1648 130.134 21.053C131.02 21.5375 131.545 22.3737 131.85 23.5163C132.16 24.6802 132.211 26.0433 132.221 27.424C132.252 31.4173 132.832 36.1048 133.192 38.9574C133.203 39.0376 133.21 39.1117 133.216 39.1798C133.123 39.1138 133.022 39.0353 132.91 38.9432C128.761 35.5022 125.727 32.9384 122.901 29.7923ZM133.2 39.7098C133.2 39.7098 133.2 39.7094 133.2 39.7086C133.2 39.7094 133.2 39.7098 133.2 39.7098Z" stroke="#484848" stroke-width="2"/>
<path d="M132.467 39.8387C124.593 29.9233 119.982 44.1483 113.053 30.2044" stroke="#484848" stroke-width="2"/>
<path d="M106.439 94.6306C105.835 93.1084 105.172 91.6379 104.272 90.26C100.202 84.0276 94.7392 78.5225 89.2022 73.6127C82.7062 67.8525 75.5339 62.9451 67.3345 59.9584C60.4497 57.4506 53.0989 56.1474 45.7863 55.8739C40.9832 55.6942 37.8818 56.014 35.0515 56.6349M35.0515 56.6349C38.0828 55.9699 34.2939 56.9229 35.0515 56.6349Z" stroke="#484848" stroke-width="1.8" stroke-linecap="round" stroke-linejoin="round"/>
<path d="M91.4674 75.707C92.3914 71.5451 92.2876 67.6919 91.6554 63.4328C91.2358 60.6062 90.9477 57.664 90.0641 54.9391C89.7758 54.0501 89.3885 53.2849 88.6539 52.6951C87.7128 51.9396 87.8628 55.9038 87.9271 56.4919C88.0982 58.0561 87.8335 57.5157 88.006 59.0926C88.3192 61.9567 88.8307 64.754 89.1433 67.6131C89.345 69.4569 89.8128 71.8552 91.8013 73.9443" stroke="#484848" stroke-width="1.8" stroke-linecap="round" stroke-linejoin="round"/>
<path d="M86.4164 71.7352C82.6178 73.605 78.8949 74.3257 74.6688 74.577C71.8641 74.7438 68.9766 75.0741 66.1698 74.7303C65.2541 74.6181 64.4361 74.3749 63.712 73.728C62.7843 72.8994 66.6237 72.2035 67.2023 72.1446C68.7413 71.9879 68.1654 71.8255 69.717 71.6675C72.5349 71.3805 75.3311 71.3168 78.1442 71.0304C79.9583 70.8456 82.362 70.8219 84.7953 72.4666" stroke="#484848" stroke-width="1.8" stroke-linecap="round" stroke-linejoin="round"/>
<path d="M77.1632 65.0824C73.8826 67.0476 70.5942 67.9241 66.824 68.3842C64.3219 68.6895 61.7563 69.1536 59.2188 68.977C58.3908 68.9194 57.6419 68.733 56.9504 68.1607C56.0647 67.4275 59.4591 66.5682 59.9736 66.4821C61.3423 66.253 60.8156 66.1301 62.1955 65.8991C64.7015 65.4797 67.2029 65.2721 69.7046 64.8533C71.3179 64.5833 73.4702 64.4341 75.7588 65.8582" stroke="#484848" stroke-width="1.8" stroke-linecap="round" stroke-linejoin="round"/>
<path d="M83.8606 69.3093C83.1391 64.9611 81.7019 61.1643 79.6982 57.0912C78.3685 54.388 77.1036 51.5387 75.4374 49.0472C74.8938 48.2342 74.3143 47.5679 73.5179 47.1583C72.4976 46.6337 74.0109 50.5295 74.2691 51.0974C74.956 52.6079 74.5538 52.1351 75.2463 53.6579C76.5039 56.4237 77.8971 59.0758 79.1525 61.8369C79.9621 63.6174 81.1801 65.8842 83.5089 67.4815" stroke="#484848" stroke-width="1.8" stroke-linecap="round" stroke-linejoin="round"/>
<path d="M72.4829 61.968C72.1447 58.0359 70.9778 54.6673 69.2275 51.0907C68.0659 48.7171 66.9891 46.2041 65.4429 44.0517C64.9384 43.3494 64.3804 42.7845 63.5622 42.4726C62.514 42.0732 63.7529 45.5265 63.9742 46.0269C64.5626 47.3578 64.1764 46.9562 64.7696 48.298C65.847 50.7349 67.0822 53.0567 68.1577 55.4894C68.8513 57.0582 69.9364 59.0405 72.2885 60.319" stroke="#484848" stroke-width="1.8" stroke-linecap="round" stroke-linejoin="round"/>
<path d="M62.9781 59.2316C60.3703 61.52 57.5791 62.8147 54.2905 63.8013C52.1081 64.4561 49.8948 65.2654 47.6025 65.4851C46.8547 65.5568 46.1564 65.4989 45.4468 65.0798C44.5378 64.5428 47.4264 63.2479 47.8714 63.0919C49.0552 62.677 48.5654 62.6438 49.7588 62.2256C51.9263 61.4659 54.1239 60.9006 56.2876 60.1423C57.683 59.6533 59.5787 59.1938 61.8511 60.1514" stroke="#484848" stroke-width="1.8" stroke-linecap="round" stroke-linejoin="round"/>
<path d="M63.9544 58.1935C63.1401 54.7703 61.591 52.0615 59.4497 49.3157C58.0286 47.4935 56.6726 45.5253 54.9055 43.9986C54.3289 43.5004 53.7173 43.1386 52.8844 43.0689C51.8174 42.9797 53.4469 45.7458 53.7236 46.136C54.4593 47.1737 54.0347 46.9139 54.7765 47.9601C56.1236 49.8602 57.6097 51.6174 58.9546 53.5143C59.8218 54.7376 61.1203 56.23 63.5619 56.7713" stroke="#484848" stroke-width="1.8" stroke-linecap="round" stroke-linejoin="round"/>
<path d="M55.667 56.8727C55.0484 53.7257 53.6855 51.2796 51.7529 48.8281C50.4702 47.2012 49.2576 45.4352 47.6265 44.1003C47.0943 43.6647 46.5216 43.3577 45.721 43.3337C44.6954 43.3028 46.133 45.7983 46.381 46.148C47.0404 47.0781 46.6433 46.857 47.3081 47.7947C48.5155 49.4978 49.8641 51.061 51.0695 52.7612C51.8468 53.8575 53.0272 55.1835 55.3577 55.5679" stroke="#484848" stroke-width="1.8" stroke-linecap="round" stroke-linejoin="round"/>
<path d="M49.9821 56.7945C49.3229 58.8385 48.1747 60.2033 46.6155 61.4273C45.5806 62.2396 44.5868 63.1669 43.3206 63.6864C42.9074 63.8559 42.4738 63.9253 41.8951 63.7388C41.1536 63.5 42.3591 62.1196 42.5615 61.938C43.0999 61.4549 42.7986 61.5087 43.3414 61.0216C44.3272 60.137 45.4053 59.3861 46.3894 58.503C47.024 57.9335 47.9647 57.3058 49.6707 57.6285" stroke="#484848" stroke-width="1.8" stroke-linecap="round" stroke-linejoin="round"/>
<path d="M45.519 55.4576C44.7381 53.1508 43.427 51.5646 41.6604 50.1077C40.488 49.1409 39.3588 48.0492 37.9348 47.3916C37.4702 47.177 36.985 47.0721 36.3436 47.241C35.522 47.4574 36.8974 49.0646 37.1272 49.2789C37.7385 49.849 37.4013 49.7698 38.0176 50.3445C39.1369 51.3883 40.3562 52.29 41.4736 53.3321C42.1941 54.004 43.2575 54.7603 45.1531 54.5136" stroke="#484848" stroke-width="1.8" stroke-linecap="round" stroke-linejoin="round"/>
<path d="M30.5544 55.6276C32.1452 55.513 33.0151 55.7876 34.4874 56.9668C33.6177 58.4286 32.9308 58.6751 32.246 58.6644C31.0936 58.6464 29.5233 58.2213 29.5233 58.2213C29.0292 58.0058 27.9217 57.8868 27.3407 57.8777C26.3998 57.8632 24.6077 58.5925 24.9341 57.8779C25.1888 57.3201 27.1062 56.7253 27.4466 56.5704C28.4899 56.0958 29.4986 55.7037 30.5544 55.6276Z" stroke="#484848" stroke-width="1.8" stroke-linecap="round" stroke-linejoin="round"/>
<path d="M40.6756 56.7876C40.4451 58.661 39.6328 59.8486 38.4119 60.8663C37.6017 61.5418 36.8511 62.3296 35.7709 62.7077C35.4185 62.831 33.6273 63.7267 33.0543 63.4988C32.3203 63.2068 34.177 61.4907 34.3312 61.3371C34.7414 60.9285 34.8782 60.6025 35.2918 60.1905C36.0429 59.4423 36.9048 58.8287 37.6547 58.0818C38.1382 57.6001 38.8955 57.0908 40.5421 57.5482" stroke="#484848" stroke-width="1.8" stroke-linecap="round" stroke-linejoin="round"/>
<path d="M97.6859 96.1853C98.0888 94.7451 98.4195 93.3093 98.5272 91.8101C99.0141 85.0292 98.086 78.0067 96.7751 71.3761C95.2371 63.5971 92.736 56.0642 88.4263 49.3597C84.8075 43.7302 80.184 38.7188 75.019 34.4771C71.6264 31.6911 69.1949 30.2089 66.7941 29.0956M66.7941 29.0956C69.3655 30.288 66.0841 28.8861 66.7941 29.0956Z" stroke="#484848" stroke-width="1.8" stroke-linecap="round" stroke-linejoin="round"/>
<path d="M95.2708 65.2946C97.1504 61.7346 98.2046 58.1797 98.9998 54.1108C99.5275 51.4105 100.183 48.6398 100.349 45.9072C100.404 45.0157 100.351 44.2109 99.9981 43.4728C99.5465 42.5273 98.4928 46.1962 98.3666 46.7518C98.0308 48.2297 97.9998 47.6637 97.6613 49.1536C97.0465 51.8596 96.5931 54.5579 95.9793 57.2593C95.5836 59.0013 95.2157 61.3226 96.0258 63.7714" stroke="#484848" stroke-width="1.8" stroke-linecap="round" stroke-linejoin="round"/>
<path d="M91.0579 53.6676C92.9859 50.6219 93.9999 47.5279 94.7048 43.96C95.1726 41.5922 95.7791 39.17 95.8451 36.7503C95.8666 35.9608 95.7732 35.2417 95.3508 34.5626C94.8096 33.6927 93.8011 36.8882 93.6853 37.3743C93.3773 38.6672 93.3185 38.1617 93.0079 39.4651C92.4439 41.8324 92.0583 44.2032 91.4953 46.5664C91.1322 48.0904 90.8252 50.1314 91.8283 52.3613" stroke="#484848" stroke-width="1.8" stroke-linecap="round" stroke-linejoin="round"/>
<path d="M84.07 45.2502C81.0738 46.2816 78.2665 46.4096 75.1455 46.1051C73.0743 45.903 70.9234 45.8208 68.91 45.213C68.2531 45.0146 67.683 44.724 67.2283 44.1241C66.6459 43.3555 69.5356 43.2611 69.9657 43.2833C71.1099 43.3425 70.7074 43.1448 71.8609 43.2045C73.9557 43.3128 76.0088 43.5957 78.1001 43.7039C79.4487 43.7736 81.21 44.0415 82.7991 45.6375" stroke="#484848" stroke-width="1.8" stroke-linecap="round" stroke-linejoin="round"/>
<path d="M86.9446 46.2084C88.2451 43.2696 88.6165 40.4438 88.5778 37.2639C88.5521 35.1534 88.6544 32.9729 88.2138 30.886C88.07 30.2051 87.8255 29.6039 87.2585 29.0927C86.5321 28.438 86.1875 31.3499 86.1729 31.7864C86.134 32.9477 85.969 32.524 85.9299 33.6947C85.8587 35.8209 85.9677 37.9199 85.8966 40.0425C85.8508 41.4112 85.9697 43.2141 87.4455 44.9575" stroke="#484848" stroke-width="1.8" stroke-linecap="round" stroke-linejoin="round"/>
<path d="M81.6498 40.6664C82.94 38.0365 83.3015 35.5047 83.2518 32.654C83.2188 30.7621 83.3136 28.8078 82.8658 26.9356C82.7197 26.3247 82.4731 25.7849 81.9043 25.3248C81.1758 24.7353 80.8413 27.3444 80.8282 27.7357C80.7934 28.7765 80.6269 28.3961 80.5918 29.4454C80.5281 31.3511 80.6443 33.2331 80.5806 35.1355C80.5396 36.3623 80.6647 37.9789 82.1463 39.5468" stroke="#484848" stroke-width="1.8" stroke-linecap="round" stroke-linejoin="round"/>
<path d="M77.5604 37.4661C75.9512 38.5877 74.3619 38.9451 72.5516 38.9729C71.3502 38.9913 70.1151 39.116 68.9072 38.7936C68.5132 38.6885 68.1596 38.4991 67.8419 38.0436C67.435 37.4601 69.0745 37.123 69.3221 37.1029C69.9806 37.0493 69.7318 36.9219 70.3957 36.8679C71.6014 36.7698 72.8003 36.8199 74.004 36.7219C74.7802 36.6588 75.8112 36.7225 76.8729 37.9003" stroke="#484848" stroke-width="1.8" stroke-linecap="round" stroke-linejoin="round"/>
<path d="M75.0547 34.0269C75.7624 31.9181 75.6861 30.0401 75.2073 28.0043C74.8895 26.6532 74.6721 25.2353 74.0004 23.9699C73.7813 23.5571 73.4866 23.2126 72.9269 22.9808C72.2099 22.6838 72.3213 24.6126 72.3699 24.8955C72.4991 25.648 72.2978 25.4039 72.4281 26.1625C72.6647 27.5402 73.0526 28.8698 73.2888 30.2451C73.4412 31.132 73.7961 32.2697 75.3106 33.1383" stroke="#484848" stroke-width="1.8" stroke-linecap="round" stroke-linejoin="round"/>
<path d="M62.6234 28.0332C63.8164 28.8691 64.627 29.0618 66.334 28.8282C66.3379 27.2747 65.9152 26.7593 65.3734 26.4465C64.4618 25.9202 63.0318 25.5168 63.0318 25.5168C62.5435 25.454 61.6197 25.0278 61.1601 24.7625C60.4159 24.3326 59.3534 22.9206 59.2741 23.6336C59.2122 24.1902 60.4358 25.5557 60.63 25.8367C61.2251 26.698 61.8317 27.4784 62.6234 28.0332Z" stroke="#484848" stroke-width="1.8" stroke-linecap="round" stroke-linejoin="round"/>
<path d="M71.7215 32.7431C70.5104 33.9198 69.2615 34.3208 67.8122 34.3927C66.8504 34.4404 65.869 34.5968 64.878 34.299C64.5546 34.2018 62.7615 33.894 62.4747 33.4396C62.1072 32.8575 64.4052 32.6317 64.6023 32.6053C65.1264 32.535 65.407 32.3804 65.9354 32.3095C66.8951 32.1808 67.8598 32.2027 68.8179 32.0742C69.4357 31.9914 70.2667 32.0311 71.2009 33.2002" stroke="#484848" stroke-width="1.8" stroke-linecap="round" stroke-linejoin="round"/>
<rect x="57.4207" y="90.9941" width="59" height="30" rx="1" fill="#F7F7F7" stroke="#484848" stroke-width="2"/>
<rect x="1" y="-1" width="67" height="13" rx="1" transform="matrix(1 0 0 -1 52.4207 89.9941)" fill="#F7F7F7" stroke="#484848" stroke-width="2"/>
<rect x="1" y="1" width="43" height="8" transform="matrix(-4.37114e-08 1 1 4.37114e-08 82.4207 76.9941)" fill="#70A076" stroke="#484848" stroke-width="2"/>
</svg>
