<svg width="84" height="84" viewBox="0 0 84 84" fill="none" xmlns="http://www.w3.org/2000/svg">
<path d="M11.5572 42.0002C12.0341 40.9918 12.9178 39.6533 13.5907 38.757C16.634 34.7034 20.5959 31.2101 24.5826 28.1257C29.2597 24.5072 34.3611 21.501 40.0799 19.8509C44.8818 18.4653 49.9495 17.9219 54.9467 18.078C58.229 18.1805 60.3296 18.5434 62.2324 19.0987M62.2324 19.0987C60.1944 18.504 62.7365 19.3303 62.2324 19.0987Z" stroke="white" stroke-linecap="round" stroke-linejoin="round"/>
<path d="M22.9479 29.4467C22.4975 26.5692 22.7344 23.9501 23.3491 21.0793C23.7571 19.174 24.0803 17.1839 24.8003 15.3696C25.0352 14.7776 25.3322 14.2747 25.8585 13.9075C26.5327 13.437 26.2594 16.1296 26.1902 16.5271C26.0061 17.5843 26.2099 17.2286 26.0243 18.2945C25.6872 20.2302 25.2179 22.1112 24.8814 24.0436C24.6644 25.2898 24.2421 26.9011 22.7963 28.2307" stroke="white" stroke-linecap="round" stroke-linejoin="round"/>
<path d="M26.5618 26.9776C29.0709 28.4287 31.5779 29.0938 34.4483 29.4627C36.3532 29.7076 38.3075 30.0677 40.2359 29.9649C40.865 29.9314 41.4331 29.8041 41.9547 29.3975C42.6229 28.8766 40.0354 28.223 39.6435 28.1558C38.601 27.977 39.0006 27.8934 37.9497 27.7132C36.0409 27.3859 34.1373 27.2116 32.2318 26.8848C31.003 26.6741 29.3653 26.5454 27.6354 27.5516" stroke="white" stroke-linecap="round" stroke-linejoin="round"/>
<path d="M33.1589 22.8812C35.3108 24.373 37.5148 25.1238 40.0654 25.6137C41.758 25.9387 43.4871 26.3748 45.2247 26.3734C45.7917 26.3729 46.3103 26.281 46.8064 25.9236C47.4419 25.4658 45.1648 24.7217 44.8177 24.639C43.8944 24.4189 44.2588 24.3599 43.3281 24.138C41.6376 23.7351 39.9413 23.4766 38.2538 23.0743C37.1655 22.8149 35.7046 22.6126 34.0829 23.4753" stroke="white" stroke-linecap="round" stroke-linejoin="round"/>
<path d="M28.4098 25.4465C29.0892 22.5191 30.2328 20.0008 31.7744 17.3208C32.7976 15.5422 33.7828 13.6611 35.0262 12.0423C35.4319 11.5142 35.8557 11.0875 36.4163 10.8459C37.1345 10.5364 35.9348 13.1185 35.7342 13.4932C35.2008 14.4897 35.4954 14.1865 34.9576 15.1912C33.981 17.0158 32.9168 18.7567 31.9418 20.5781C31.3131 21.7528 30.3849 23.2395 28.7284 24.2182" stroke="white" stroke-linecap="round" stroke-linejoin="round"/>
<path d="M36.4822 20.9789C36.8824 18.317 37.8232 16.0776 39.1707 13.7239C40.065 12.1619 40.9075 10.501 42.0545 9.10752C42.4287 8.65288 42.8335 8.29431 43.4047 8.12025C44.1366 7.89729 43.143 10.191 42.9706 10.5214C42.512 11.4002 42.7927 11.1448 42.3304 12.0308C41.4907 13.6398 40.5485 15.1631 39.7103 16.7695C39.1698 17.8053 38.3445 19.1044 36.6858 19.865" stroke="white" stroke-linecap="round" stroke-linejoin="round"/>
<path d="M43.081 19.5594C44.7602 21.2399 46.6073 22.2522 48.8067 23.078C50.2664 23.6261 51.7405 24.2808 53.2937 24.5377C53.8005 24.6215 54.279 24.6148 54.7809 24.3626C55.4238 24.0394 53.5103 23.0224 53.2136 22.8954C52.4245 22.5574 52.7598 22.5577 51.9642 22.217C50.5193 21.5983 49.0454 21.1104 47.603 20.4928C46.6728 20.0944 45.4002 19.6928 43.8097 20.2385" stroke="white" stroke-linecap="round" stroke-linejoin="round"/>
<path d="M42.4602 18.8078C43.163 16.5148 44.3359 14.7426 45.9142 12.973C46.9616 11.7986 47.9709 10.5217 49.2415 9.56472C49.6561 9.25248 50.0887 9.03468 50.6595 9.02624C51.3908 9.01542 50.1605 10.8228 49.9551 11.0756C49.4088 11.7479 49.7095 11.5908 49.1586 12.2685C48.1583 13.4995 47.0693 14.6265 46.0706 15.8553C45.4266 16.6478 44.477 17.6033 42.7891 17.8577" stroke="white" stroke-linecap="round" stroke-linejoin="round"/>
<path d="M48.1669 18.2959C48.7243 16.1817 49.7589 14.5798 51.1823 13.0008C52.1269 11.9529 53.0298 10.807 54.1994 9.97428C54.581 9.70259 54.9846 9.52035 55.5315 9.54143C56.2321 9.56842 55.1443 11.2005 54.9602 11.4271C54.4705 12.0296 54.7508 11.8976 54.2571 12.5051C53.3605 13.6084 52.3736 14.6097 51.4785 15.7111C50.9013 16.4214 50.0394 17.2691 48.434 17.4218" stroke="white" stroke-linecap="round" stroke-linejoin="round"/>
<path d="M52.046 18.5093C52.4073 19.9321 53.1312 20.9153 54.1414 21.8218C54.8119 22.4234 55.4494 23.1014 56.2903 23.5144C56.5647 23.6492 56.8573 23.7167 57.2599 23.6169C57.7757 23.4889 57.0134 22.4925 56.8832 22.3593C56.537 22.0051 56.7401 22.0559 56.391 21.6988C55.7571 21.0502 55.0545 20.4884 54.4217 19.8409C54.0136 19.4234 53.3993 18.9519 52.2223 19.0918" stroke="white" stroke-linecap="round" stroke-linejoin="round"/>
<path d="M55.1476 17.8091C55.7794 16.2746 56.7416 15.2556 58.0087 14.346C58.8496 13.7424 59.6664 13.0518 60.6655 12.6705C60.9914 12.5461 61.3267 12.4973 61.7566 12.6424C62.3074 12.8282 61.3005 13.8585 61.1346 13.9937C60.6932 14.3534 60.9266 14.3152 60.4816 14.6778C59.6736 15.3363 58.8036 15.8934 57.9969 16.5508C57.4767 16.9747 56.7193 17.4401 55.4377 17.1833" stroke="white" stroke-linecap="round" stroke-linejoin="round"/>
<path d="M65.3413 18.6262C64.2618 18.4742 63.6567 18.6209 62.6016 19.3555C63.131 20.3913 63.5886 20.5911 64.056 20.6156C64.8424 20.6568 65.9315 20.4403 65.9315 20.4403C66.2777 20.3165 67.0379 20.2869 67.4344 20.3077C68.0766 20.3415 69.2666 20.9214 69.0752 20.4196C68.9258 20.028 67.6445 19.5338 67.4191 19.4125C66.7285 19.0409 66.0578 18.727 65.3413 18.6262Z" stroke="white" stroke-linecap="round" stroke-linejoin="round"/>
<path d="M58.5762 18.7772C58.8074 19.9278 59.3456 20.7433 60.1154 21.5099C60.6263 22.0187 61.1078 22.587 61.7622 22.9528C61.9757 23.0721 63.0745 23.8394 63.3997 23.7771C63.8164 23.6973 62.6372 22.4307 62.5386 22.3188C62.2766 22.0214 62.1795 21.8087 61.9153 21.5088C61.4355 20.9641 60.8974 20.4856 60.4184 19.9419C60.1096 19.5912 59.6383 19.1886 58.6936 19.2496" stroke="white" stroke-linecap="round" stroke-linejoin="round"/>
<path d="M72.4015 41.9955C71.9245 43.0039 71.4088 43.9743 70.736 44.8705C67.6926 48.9242 63.7307 52.4174 59.7441 55.5018C55.067 59.1204 49.9656 62.1266 44.2468 63.7767C39.4449 65.1622 34.3772 65.7056 29.38 65.5496C26.0977 65.4471 23.9971 65.0842 22.0943 64.5289M22.0943 64.5289C24.1322 65.1236 21.5902 64.2973 22.0943 64.5289Z" stroke="white" stroke-linecap="round" stroke-linejoin="round"/>
<path d="M61.3792 54.1808C61.8297 57.0582 61.5927 59.6774 60.978 62.5482C60.5701 64.4534 60.2468 66.4436 59.5269 68.2578C59.292 68.8498 58.995 69.3527 58.4687 69.72C57.7945 70.1904 58.0677 67.4979 58.1369 67.1004C58.321 66.0432 58.1173 66.3988 58.3029 65.333C58.6399 63.3972 59.1092 61.5163 59.4457 59.5838C59.6627 58.3377 60.0851 56.7263 61.5308 55.3967" stroke="white" stroke-linecap="round" stroke-linejoin="round"/>
<path d="M57.7649 56.6498C55.2558 55.1987 52.7488 54.5337 49.8784 54.1647C47.9735 53.9198 46.0191 53.5597 44.0908 53.6625C43.4617 53.6961 42.8935 53.8234 42.3719 54.23C41.7037 54.7509 44.2913 55.4044 44.6832 55.4717C45.7256 55.6504 45.326 55.734 46.377 55.9143C48.2857 56.2416 50.1894 56.4159 52.0948 56.7426C53.3236 56.9533 54.9614 57.082 56.6912 56.0759" stroke="white" stroke-linecap="round" stroke-linejoin="round"/>
<path d="M51.1682 60.7462C49.0164 59.2544 46.8123 58.5036 44.2618 58.0138C42.5691 57.6887 40.84 57.2526 39.1024 57.2541C38.5355 57.2546 38.0169 57.3464 37.5208 57.7038C36.8853 58.1617 39.1624 58.9057 39.5095 58.9885C40.4327 59.2085 40.0683 59.2676 40.9991 59.4894C42.6895 59.8924 44.3859 60.1509 46.0734 60.5531C47.1616 60.8125 48.6225 61.0148 50.2442 60.1522" stroke="white" stroke-linecap="round" stroke-linejoin="round"/>
<path d="M55.9169 58.181C55.2375 61.1083 54.0939 63.6267 52.5522 66.3066C51.5291 68.0852 50.5438 69.9663 49.3005 71.5851C48.8948 72.1133 48.471 72.5399 47.9103 72.7815C47.1922 73.0911 48.3919 70.5089 48.5924 70.1343C49.1258 69.1377 48.8313 69.4409 49.369 68.4363C50.3457 66.6117 51.4099 64.8708 52.3849 63.0493C53.0136 61.8747 53.9417 60.388 55.5983 59.4093" stroke="white" stroke-linecap="round" stroke-linejoin="round"/>
<path d="M47.8445 62.6485C47.4443 65.3105 46.5035 67.5498 45.1559 69.9035C44.2616 71.4656 43.4192 73.1265 42.2722 74.5199C41.898 74.9746 41.4932 75.3331 40.9219 75.5072C40.1901 75.7302 41.1837 73.4365 41.3561 73.1061C41.8146 72.2273 41.534 72.4826 41.9963 71.5967C42.8359 69.9876 43.7782 68.4643 44.6163 66.858C45.1569 65.8221 45.9821 64.523 47.6408 63.7624" stroke="white" stroke-linecap="round" stroke-linejoin="round"/>
<path d="M41.2461 64.0678C39.5669 62.3873 37.7198 61.375 35.5204 60.5492C34.0607 60.0011 32.5867 59.3464 31.0334 59.0895C30.5267 59.0057 30.0481 59.0124 29.5462 59.2646C28.9034 59.5878 30.8168 60.6048 31.1135 60.7318C31.9027 61.0698 31.5673 61.0695 32.3629 61.4102C33.8078 62.0289 35.2817 62.5167 36.7241 63.1344C37.6543 63.5328 38.9269 63.9344 40.5174 63.3886" stroke="white" stroke-linecap="round" stroke-linejoin="round"/>
<path d="M41.867 64.8197C41.1642 67.1127 39.9912 68.8849 38.413 70.6545C37.3655 71.8289 36.3562 73.1057 35.0856 74.0627C34.671 74.375 34.2385 74.5928 33.6676 74.6012C32.9363 74.612 34.1666 72.8046 34.372 72.5518C34.9184 71.8796 34.6177 72.0367 35.1685 71.3589C36.1689 70.128 37.2578 69.0009 38.2565 67.7721C38.9005 66.9797 39.8501 66.0241 41.538 65.7698" stroke="white" stroke-linecap="round" stroke-linejoin="round"/>
<path d="M36.1598 65.3315C35.6023 67.4457 34.5677 69.0477 33.1444 70.6267C32.1998 71.6746 31.2969 72.8204 30.1273 73.6532C29.7457 73.9248 29.342 74.1071 28.7951 74.086C28.0946 74.059 29.1824 72.4269 29.3665 72.2004C29.8562 71.5978 29.5759 71.7298 30.0696 71.1224C30.9662 70.0191 31.953 69.0177 32.8481 67.9163C33.4253 67.2061 34.2873 66.3584 35.8926 66.2056" stroke="white" stroke-linecap="round" stroke-linejoin="round"/>
<path d="M32.2811 65.1182C31.9199 63.6953 31.196 62.7122 30.1857 61.8057C29.5152 61.2041 28.8777 60.5261 28.0368 60.113C27.7625 59.9782 27.4699 59.9107 27.0672 60.0106C26.5515 60.1385 27.3138 61.135 27.4439 61.2681C27.7902 61.6223 27.5871 61.5716 27.9361 61.9287C28.57 62.5772 29.2726 63.1391 29.9055 63.7865C30.3136 64.2041 30.9278 64.6756 32.1048 64.5356" stroke="white" stroke-linecap="round" stroke-linejoin="round"/>
<path d="M29.1791 65.8183C28.5473 67.3529 27.5851 68.3718 26.318 69.2814C25.4771 69.885 24.6603 70.5757 23.6612 70.9569C23.3352 71.0813 23 71.1301 22.57 70.985C22.0193 70.7992 23.0262 69.769 23.1921 69.6337C23.6334 69.2741 23.4001 69.3122 23.845 68.9497C24.6531 68.2911 25.5231 67.734 26.3297 67.0766C26.8499 66.6527 27.6074 66.1874 28.8889 66.4441" stroke="white" stroke-linecap="round" stroke-linejoin="round"/>
<path d="M18.9858 65.0013C20.0654 65.1532 20.6704 65.0066 21.7255 64.2719C21.1961 63.2361 20.7385 63.0363 20.2712 63.0118C19.4847 62.9706 18.3957 63.1871 18.3957 63.1871C18.0494 63.311 17.2892 63.3405 16.8927 63.3197C16.2506 63.2859 15.0605 62.7061 15.2519 63.2078C15.4014 63.5995 16.6827 64.0936 16.908 64.2149C17.5987 64.5865 18.2693 64.9004 18.9858 65.0013Z" stroke="white" stroke-linecap="round" stroke-linejoin="round"/>
<path d="M25.7509 64.8502C25.5197 63.6996 24.9815 62.8841 24.2118 62.1175C23.7009 61.6087 23.2194 61.0404 22.565 60.6747C22.3515 60.5553 21.2527 59.788 20.9274 59.8503C20.5107 59.9302 21.69 61.1968 21.7885 61.3086C22.0506 61.6061 22.1476 61.8188 22.4118 62.1187C22.8916 62.6634 23.4297 63.1418 23.9087 63.6856C24.2176 64.0362 24.6888 64.4388 25.6336 64.3779" stroke="white" stroke-linecap="round" stroke-linejoin="round"/>
<path d="M72.0518 42.3537C72.2471 42.5489 72.5637 42.5489 72.7589 42.3537C72.9542 42.1584 72.9542 41.8418 72.7589 41.6465L72.0518 42.3537ZM54.1463 24.4481L72.0518 42.3537L72.7589 41.6465L54.8534 23.741L54.1463 24.4481ZM29.8493 59.1424L11.8493 41.5479L11.1503 42.263L29.1503 59.8576L29.8493 59.1424Z" fill="white"/>
<path d="M29.0361 47.0625H34.8331V46.0425H30.1751V35.7235H29.0361V47.0625ZM41.0824 51.9585H41.8304V33.5985H41.0824V51.9585ZM48.7598 47.0625H49.8988V41.5035H53.4008V47.0625H54.5398V35.7235H53.4008V40.4835H49.8988V35.7235H48.7598V47.0625Z" fill="white"/>
</svg>
